<svg width="32" height="32" viewBox="0 0 32 32" fill="none" xmlns="http://www.w3.org/2000/svg">
<path opacity="0.2" d="M27 9V26C27 26.2652 26.8946 26.5196 26.7071 26.7071C26.5196 26.8946 26.2652 27 26 27H6C5.73478 27 5.48043 26.8946 5.29289 26.7071C5.10536 26.5196 5 26.2652 5 26V9H27Z" fill="#2B95FF"/>
<path d="M26 27H6C5.73478 27 5.48043 26.8946 5.29289 26.7071C5.10536 26.5196 5 26.2652 5 26V9L7 5H25L27 9V26C27 26.2652 26.8946 26.5196 26.7071 26.7071C26.5196 26.8946 26.2652 27 26 27Z" stroke="#2B95FF" stroke-width="2" stroke-linecap="round" stroke-linejoin="round"/>
<path d="M11.7573 18.7573L15.9999 22.9999L20.2426 18.7573" stroke="#2B95FF" stroke-width="2" stroke-linecap="round" stroke-linejoin="round"/>
<path d="M16 13V23" stroke="#2B95FF" stroke-width="2" stroke-linecap="round" stroke-linejoin="round"/>
<path d="M5 9H27" stroke="#2B95FF" stroke-width="2" stroke-linecap="round" stroke-linejoin="round"/>
</svg>
