<svg width="32" height="32" viewBox="0 0 32 32" fill="none" xmlns="http://www.w3.org/2000/svg">
<path opacity="0.2" d="M26 8H6C5.44772 8 5 8.44772 5 9V25C5 25.5523 5.44772 26 6 26H26C26.5523 26 27 25.5523 27 25V9C27 8.44772 26.5523 8 26 8Z" fill="#2B95FF"/>
<path d="M26 8H6C5.44772 8 5 8.44772 5 9V25C5 25.5523 5.44772 26 6 26H26C26.5523 26 27 25.5523 27 25V9C27 8.44772 26.5523 8 26 8Z" stroke="#2B95FF" stroke-width="2" stroke-linecap="round" stroke-linejoin="round"/>
<path d="M11 8C11 6.67392 11.5268 5.40215 12.4645 4.46447C13.4021 3.52678 14.6739 3 16 3C17.3261 3 18.5979 3.52678 19.5355 4.46447C20.4732 5.40215 21 6.67392 21 8" stroke="#2B95FF" stroke-width="2" stroke-linecap="round" stroke-linejoin="round"/>
</svg>
