<svg width="32" height="32" viewBox="0 0 32 32" fill="none" xmlns="http://www.w3.org/2000/svg">
<path opacity="0.2" d="M6 28C6 27.2044 6.31607 26.4413 6.87868 25.8787C7.44129 25.3161 8.20435 25 9 25H26V4H9C8.20435 4 7.44129 4.31607 6.87868 4.87868C6.31607 5.44129 6 6.20435 6 7V28Z" fill="#2B95FF"/>
<path d="M6 28C6 27.2044 6.31607 26.4413 6.87868 25.8787C7.44129 25.3161 8.20435 25 9 25H26V4H9C8.20435 4 7.44129 4.31607 6.87868 4.87868C6.31607 5.44129 6 6.20435 6 7V28Z" stroke="#2B95FF" stroke-width="2" stroke-linecap="round" stroke-linejoin="round"/>
<path d="M6 28V29H24" stroke="#2B95FF" stroke-width="2" stroke-linecap="round" stroke-linejoin="round"/>
</svg>
