<svg width="32" height="32" viewBox="0 0 32 32" fill="none" xmlns="http://www.w3.org/2000/svg">
<path opacity="0.2" d="M17.9993 27.998V4.99805C17.9993 4.73283 17.8939 4.47848 17.7064 4.29094C17.5188 4.1034 17.2645 3.99805 16.9993 3.99805H4.99927C4.73405 3.99805 4.4797 4.1034 4.29216 4.29094C4.10462 4.47848 3.99927 4.73283 3.99927 4.99805V27.998" fill="#2B95FF"/>
<path d="M17.9993 27.998V4.99805C17.9993 4.73283 17.8939 4.47848 17.7064 4.29094C17.5188 4.1034 17.2645 3.99805 16.9993 3.99805H4.99927C4.73405 3.99805 4.4797 4.1034 4.29216 4.29094C4.10462 4.47848 3.99927 4.73283 3.99927 4.99805V27.998" stroke="#2B95FF" stroke-width="2" stroke-linecap="round" stroke-linejoin="round"/>
<path d="M27.9993 27.998V12.998C27.9993 12.7328 27.8939 12.4785 27.7064 12.2909C27.5188 12.1034 27.2645 11.998 26.9993 11.998H17.9993" stroke="#2B95FF" stroke-width="2" stroke-linecap="round" stroke-linejoin="round"/>
<path d="M7.99927 8.99805H11.9993" stroke="#2B95FF" stroke-width="2" stroke-linecap="round" stroke-linejoin="round"/>
<path d="M9.99927 18.998H13.9993" stroke="#2B95FF" stroke-width="2" stroke-linecap="round" stroke-linejoin="round"/>
<path d="M7.99927 23.998H11.9993" stroke="#2B95FF" stroke-width="2" stroke-linecap="round" stroke-linejoin="round"/>
<path d="M21.9993 21.998H23.9993" stroke="#2B95FF" stroke-width="2" stroke-linecap="round" stroke-linejoin="round"/>
<path d="M21.9993 16.998H23.9993" stroke="#2B95FF" stroke-width="2" stroke-linecap="round" stroke-linejoin="round"/>
</svg>
