<svg width="32" height="32" viewBox="0 0 32 32" fill="none" xmlns="http://www.w3.org/2000/svg">
<path opacity="0.2" d="M16 28C22.6274 28 28 22.6274 28 16C28 9.37258 22.6274 4 16 4C9.37258 4 4 9.37258 4 16C4 22.6274 9.37258 28 16 28Z" fill="#2B95FF"/>
<path d="M16 28C22.6274 28 28 22.6274 28 16C28 9.37258 22.6274 4 16 4C9.37258 4 4 9.37258 4 16C4 22.6274 9.37258 28 16 28Z" stroke="#2B95FF" stroke-width="2" stroke-miterlimit="10"/>
<path d="M8.87793 25.6591C10.6579 22.7103 13.1697 20.2714 16.1697 18.5791C19.1697 16.8867 22.5561 15.9983 26.0006 16C26.6752 16 27.3414 16.0329 27.9994 16.0986" stroke="#2B95FF" stroke-width="2" stroke-linecap="round" stroke-linejoin="round"/>
<path d="M23.5038 6.63672C21.63 8.93981 19.266 10.7959 16.5841 12.0697C13.9022 13.3435 10.9699 14.003 8.00086 14.0001C6.73619 14.0007 5.47429 13.882 4.23193 13.6455" stroke="#2B95FF" stroke-width="2" stroke-linecap="round" stroke-linejoin="round"/>
<path d="M10.7412 5.21094C13.7486 6.97553 16.2421 9.49603 17.9742 12.5222C19.7064 15.5484 20.6168 18.975 20.6153 22.4618C20.6164 24.0956 20.4178 25.7234 20.0239 27.3089" stroke="#2B95FF" stroke-width="2" stroke-linecap="round" stroke-linejoin="round"/>
</svg>
