<svg width="32" height="32" viewBox="0 0 32 32" fill="none" xmlns="http://www.w3.org/2000/svg">
<path opacity="0.2" d="M9.99962 21.0001C8.32077 19.7407 7.08072 17.985 6.45511 15.9816C5.8295 13.9783 5.85004 11.8289 6.51382 9.83795C7.17761 7.84695 8.45098 6.11526 10.1536 4.88816C11.8562 3.66105 13.9017 3.00074 16.0005 3.00073C18.0992 3.00073 20.1447 3.66104 21.8474 4.88814C23.55 6.11524 24.8234 7.84693 25.4871 9.83792C26.1509 11.8289 26.1715 13.9783 25.5459 15.9816C24.9203 17.9849 23.6802 19.7406 22.0014 21.0001" fill="#2B95FF"/>
<path d="M12.0005 25H20.0005" stroke="#2B95FF" stroke-width="2" stroke-linecap="round" stroke-linejoin="round"/>
<path d="M13.0005 29H19.0005" stroke="#2B95FF" stroke-width="2" stroke-linecap="round" stroke-linejoin="round"/>
<path d="M9.99962 21.0001C8.32077 19.7407 7.08072 17.985 6.45511 15.9816C5.8295 13.9783 5.85004 11.8289 6.51382 9.83795C7.17761 7.84695 8.45098 6.11526 10.1536 4.88816C11.8562 3.66105 13.9017 3.00074 16.0005 3.00073C18.0992 3.00073 20.1447 3.66104 21.8474 4.88814C23.55 6.11524 24.8234 7.84693 25.4871 9.83792C26.1509 11.8289 26.1715 13.9783 25.5459 15.9816C24.9203 17.9849 23.6802 19.7406 22.0014 21.0001" stroke="#2B95FF" stroke-width="2" stroke-linecap="round" stroke-linejoin="round"/>
</svg>
