<svg width="32" height="32" viewBox="0 0 32 32" fill="none" xmlns="http://www.w3.org/2000/svg">
<path opacity="0.2" d="M24.4853 7.51475C23.2774 6.30733 21.8256 5.37168 20.227 4.77034C18.6284 4.169 16.9199 3.91583 15.2156 4.02774C13.5114 4.13966 11.8506 4.61409 10.3444 5.41931C8.83822 6.22453 7.52126 7.342 6.48156 8.69702C5.44186 10.052 4.70339 11.6134 4.31551 13.2767C3.92763 14.94 3.89927 16.6669 4.23234 18.3421C4.5654 20.0172 5.25222 21.602 6.24687 22.9904C7.24151 24.3788 8.52108 25.5389 10 26.3932V22L16 9.00004L22 22V26.3932C23.5939 25.4725 24.9546 24.1977 25.977 22.6671C26.9994 21.1366 27.6561 19.3915 27.8964 17.5666C28.1366 15.7417 27.9539 13.8861 27.3625 12.1431C26.771 10.4001 25.7866 8.81652 24.4853 7.51475V7.51475Z" fill="#2B95FF"/>
<path d="M16 28C22.6274 28 28 22.6274 28 16C28 9.37258 22.6274 4 16 4C9.37258 4 4 9.37258 4 16C4 22.6274 9.37258 28 16 28Z" stroke="#2B95FF" stroke-width="2" stroke-linecap="round" stroke-linejoin="round"/>
<path d="M18 23C18 22.4696 18.2107 21.9609 18.5858 21.5858C18.9609 21.2107 19.4696 21 20 21C20.5304 21 21.0391 21.2107 21.4142 21.5858C21.7893 21.9609 22 22.4696 22 23" stroke="#2B95FF" stroke-width="2" stroke-linecap="round" stroke-linejoin="round"/>
<path d="M10 23C10 22.4696 10.2107 21.9609 10.5858 21.5858C10.9609 21.2107 11.4696 21 12 21C12.5304 21 13.0391 21.2107 13.4142 21.5858C13.7893 21.9609 14 22.4696 14 23" stroke="#2B95FF" stroke-width="2" stroke-linecap="round" stroke-linejoin="round"/>
<path d="M18 27.8331V23C18 22.4696 17.7893 21.9609 17.4142 21.5858C17.0391 21.2107 16.5304 21 16 21C15.4696 21 14.9609 21.2107 14.5858 21.5858C14.2107 21.9609 14 22.4696 14 23V27.8331" stroke="#2B95FF" stroke-width="2" stroke-linecap="round" stroke-linejoin="round"/>
<path d="M22 26.3951V22L16 9L10 22V26.3955" stroke="#2B95FF" stroke-width="2" stroke-linecap="round" stroke-linejoin="round"/>
<path d="M18.7692 15H13.2307" stroke="#2B95FF" stroke-width="2" stroke-linecap="round" stroke-linejoin="round"/>
</svg>
