<svg width="32" height="32" viewBox="0 0 32 32" fill="none" xmlns="http://www.w3.org/2000/svg">
<path opacity="0.2" d="M26.8776 22.7881C26.5605 21.2532 25.6559 19.9032 24.3569 19.0262C24.2366 18.9431 24.1359 18.8345 24.0622 18.7082C23.9884 18.5818 23.9432 18.4409 23.9299 18.2952L22.5901 4.90047C22.5654 4.65372 22.4499 4.42494 22.266 4.25854C22.0822 4.09214 21.843 4 21.5951 4H10.405C10.157 4 9.91786 4.09214 9.73399 4.25854C9.55012 4.42494 9.43463 4.65372 9.40995 4.90047L8.07018 18.2952C8.05684 18.4409 8.01167 18.5818 7.93788 18.7082C7.86409 18.8345 7.76346 18.9431 7.64311 19.0262C6.34415 19.9032 5.43954 21.2532 5.12247 22.7881C5.09149 22.934 5.09342 23.085 5.12814 23.2301C5.16286 23.3751 5.22948 23.5106 5.32316 23.6267C5.41684 23.7428 5.53523 23.8366 5.6697 23.9011C5.80417 23.9657 5.95135 23.9995 6.10052 24H25.8995C26.0487 23.9995 26.1959 23.9657 26.3303 23.9011C26.4648 23.8366 26.5832 23.7428 26.6769 23.6267C26.7706 23.5106 26.8372 23.3751 26.8719 23.2301C26.9066 23.085 26.9085 22.934 26.8776 22.7881Z" fill="#2B95FF"/>
<path d="M16 24V30" stroke="#2B95FF" stroke-width="2" stroke-linecap="round" stroke-linejoin="round"/>
<path d="M26.8776 22.7881C26.5605 21.2532 25.6559 19.9032 24.3569 19.0262C24.2366 18.9431 24.1359 18.8345 24.0622 18.7082C23.9884 18.5818 23.9432 18.4409 23.9299 18.2952L22.5901 4.90047C22.5654 4.65372 22.4499 4.42494 22.266 4.25854C22.0822 4.09214 21.843 4 21.5951 4H10.405C10.157 4 9.91786 4.09214 9.73399 4.25854C9.55012 4.42494 9.43463 4.65372 9.40995 4.90047L8.07018 18.2952C8.05684 18.4409 8.01167 18.5818 7.93788 18.7082C7.86409 18.8345 7.76346 18.9431 7.64311 19.0262C6.34415 19.9032 5.43954 21.2532 5.12247 22.7881C5.09149 22.934 5.09342 23.085 5.12814 23.2301C5.16286 23.3751 5.22948 23.5106 5.32316 23.6267C5.41684 23.7428 5.53523 23.8366 5.6697 23.9011C5.80417 23.9657 5.95135 23.9995 6.10052 24H25.8995C26.0487 23.9995 26.1959 23.9657 26.3303 23.9011C26.4648 23.8366 26.5832 23.7428 26.6769 23.6267C26.7706 23.5106 26.8372 23.3751 26.8719 23.2301C26.9066 23.085 26.9085 22.934 26.8776 22.7881Z" stroke="#2B95FF" stroke-width="2" stroke-linecap="round" stroke-linejoin="round"/>
</svg>
