<svg width="32" height="32" viewBox="0 0 32 32" fill="none" xmlns="http://www.w3.org/2000/svg">
<path opacity="0.2" d="M10.2678 24.6818L6.52511 28.4245C6.43226 28.5173 6.32202 28.591 6.20069 28.6412C6.07937 28.6915 5.94933 28.7174 5.81801 28.7174C5.68669 28.7174 5.55665 28.6915 5.43532 28.6412C5.314 28.591 5.20376 28.5173 5.1109 28.4245L3.57536 26.8889C3.48251 26.7961 3.40885 26.6858 3.35859 26.5645C3.30834 26.4432 3.28247 26.3131 3.28247 26.1818C3.28247 26.0505 3.30834 25.9205 3.35859 25.7991C3.40885 25.6778 3.48251 25.5676 3.57536 25.4747L7.31801 21.7321C7.41086 21.6392 7.48452 21.529 7.53478 21.4077C7.58503 21.2863 7.6109 21.1563 7.6109 21.025C7.6109 20.8937 7.58503 20.7636 7.53478 20.6423C7.48452 20.521 7.41086 20.4107 7.31801 20.3179L4.7071 17.707C4.51956 17.5194 4.4142 17.2651 4.4142 16.9998C4.4142 16.7346 4.51956 16.4803 4.7071 16.2927L6.29288 14.707C6.48042 14.5194 6.73477 14.4141 6.99999 14.4141C7.26521 14.4141 7.51956 14.5194 7.7071 14.707L17.2929 24.2927C17.4804 24.4803 17.5858 24.7346 17.5858 24.9998C17.5858 25.2651 17.4804 25.5194 17.2929 25.707L15.7071 27.2927C15.5196 27.4803 15.2652 27.5856 15 27.5856C14.7348 27.5856 14.4804 27.4803 14.2929 27.2927L11.682 24.6818C11.4944 24.4943 11.2401 24.3889 10.9749 24.3889C10.7096 24.3889 10.4553 24.4943 10.2678 24.6818V24.6818Z" fill="#2B95FF"/>
<path d="M9.52515 16.5251L19.0251 5.02513L27 5L26.9749 12.9749L15.4749 22.4749" stroke="#2B95FF" stroke-width="2" stroke-linecap="round" stroke-linejoin="round"/>
<path d="M12.5 19.5L20 12" stroke="#2B95FF" stroke-width="2" stroke-linecap="round" stroke-linejoin="round"/>
<path d="M10.2678 24.6818L6.52511 28.4245C6.43226 28.5173 6.32202 28.591 6.20069 28.6412C6.07937 28.6915 5.94933 28.7174 5.81801 28.7174C5.68669 28.7174 5.55665 28.6915 5.43532 28.6412C5.314 28.591 5.20376 28.5173 5.1109 28.4245L3.57536 26.8889C3.48251 26.7961 3.40885 26.6858 3.35859 26.5645C3.30834 26.4432 3.28247 26.3131 3.28247 26.1818C3.28247 26.0505 3.30834 25.9205 3.35859 25.7991C3.40885 25.6778 3.48251 25.5676 3.57536 25.4747L7.31801 21.7321C7.41086 21.6392 7.48452 21.529 7.53478 21.4077C7.58503 21.2863 7.6109 21.1563 7.6109 21.025C7.6109 20.8937 7.58503 20.7636 7.53478 20.6423C7.48452 20.521 7.41086 20.4107 7.31801 20.3179L4.7071 17.707C4.51956 17.5194 4.4142 17.2651 4.4142 16.9998C4.4142 16.7346 4.51956 16.4803 4.7071 16.2927L6.29288 14.707C6.48042 14.5194 6.73477 14.4141 6.99999 14.4141C7.26521 14.4141 7.51956 14.5194 7.7071 14.707L17.2929 24.2927C17.4804 24.4803 17.5858 24.7346 17.5858 24.9998C17.5858 25.2651 17.4804 25.5194 17.2929 25.707L15.7071 27.2927C15.5196 27.4803 15.2652 27.5856 15 27.5856C14.7348 27.5856 14.4804 27.4803 14.2929 27.2927L11.682 24.6818C11.4944 24.4943 11.2401 24.3889 10.9749 24.3889C10.7096 24.3889 10.4553 24.4943 10.2678 24.6818V24.6818Z" stroke="#2B95FF" stroke-width="2" stroke-linecap="round" stroke-linejoin="round"/>
</svg>
