<svg width="32" height="32" viewBox="0 0 32 32" fill="none" xmlns="http://www.w3.org/2000/svg">
<path opacity="0.2" d="M16.7552 26.1101C16.6614 26.2201 16.5447 26.3084 16.4133 26.3686C16.2819 26.4288 16.1389 26.4596 15.9943 26.4587C15.8498 26.4579 15.7072 26.4255 15.5764 26.3637C15.4457 26.302 15.3301 26.2124 15.2376 26.1013L6.29541 15.562C9.0061 13.2623 12.4453 12 16.0001 12C19.5549 12 22.9941 13.2623 25.7048 15.562L16.7552 26.1101Z" fill="#2B95FF"/>
<path d="M2.52595 9.49138C10.4615 3.50287 21.5382 3.50287 29.4738 9.4914C29.5824 9.57434 29.6729 9.67862 29.7397 9.79784C29.8066 9.91705 29.8483 10.0487 29.8623 10.1846C29.8764 10.3206 29.8625 10.4579 29.8215 10.5883C29.7805 10.7187 29.7133 10.8393 29.6239 10.9427C27.243 13.7488 19.2555 23.1629 16.7549 26.1101C16.6612 26.2201 16.5445 26.3083 16.4131 26.3686C16.2817 26.4288 16.1387 26.4595 15.9941 26.4587C15.8495 26.4579 15.7069 26.4254 15.5762 26.3637C15.4455 26.302 15.3298 26.2124 15.2374 26.1013L2.37985 10.9474C2.2902 10.8438 2.22263 10.7231 2.18127 10.5925C2.13991 10.4619 2.12563 10.3242 2.13931 10.1879C2.15299 10.0516 2.19433 9.91955 2.26081 9.79979C2.32729 9.68002 2.41752 9.57508 2.52595 9.49138V9.49138Z" stroke="#2B95FF" stroke-width="2" stroke-linecap="round" stroke-linejoin="round"/>
<path d="M6.29541 15.562C9.0061 13.2623 12.4453 12 16.0001 12C19.5549 12 22.9941 13.2623 25.7048 15.562" stroke="#2B95FF" stroke-width="2" stroke-linecap="round" stroke-linejoin="round"/>
</svg>
